<svg width="22" height="37" viewBox="0 0 22 37" fill="none" xmlns="http://www.w3.org/2000/svg">
<path d="M1.70124 3.39565L1.38191 3.63361L1.5424 3.99807L3.55963 8.57925L3.83756 9.21041L4.35103 8.75002C5.03465 8.13706 5.78439 7.62392 6.60112 7.2099L6.60115 7.20996L6.60822 7.20622C7.44434 6.76543 8.15943 6.47043 8.75773 6.30976C9.37745 6.14335 10.0147 6.02664 10.6698 5.95988L10.6698 5.96004L10.6823 5.95845C11.3723 5.87056 11.7755 5.84407 11.9433 5.85689L11.9623 5.85834H11.9814C12.1746 5.85834 12.3116 5.86507 12.4011 5.87512C13.2147 6.12138 13.8811 6.44214 14.411 6.82928L14.4176 6.83413L14.4244 6.83876C15.0014 7.23187 15.376 7.6087 15.5878 7.95945L15.5916 7.96566L15.5955 7.97175C15.8402 8.35154 16.0092 8.77009 16.102 9.23127L16.102 9.23127L16.1027 9.23453C16.2001 9.70235 16.2285 10.1029 16.199 10.4417C16.1674 10.7861 16.096 11.1519 15.9823 11.5399C15.8594 11.9407 15.7745 12.1701 15.7264 12.2656L15.7146 12.2892L15.7053 12.3138C15.6558 12.4449 15.6201 12.5284 15.5971 12.5746C15.395 12.9591 15.1855 13.3169 14.9687 13.6483L14.9638 13.6558L14.9591 13.6635C14.7747 13.969 14.3906 14.4606 13.7806 15.1533L13.7805 15.1533L13.7759 15.1587C13.2064 15.8244 12.5988 16.3859 11.954 16.846C11.34 17.2793 10.5126 17.6856 9.45733 18.0577L9.45491 18.0585C8.44707 18.4197 7.36922 18.6019 6.21786 18.6019H5.68738L5.71873 19.1314L5.79704 20.4542C5.83119 21.3059 5.8313 22.316 5.79667 23.486C5.76206 24.6553 5.66717 25.5042 5.52422 26.0566L5.35404 26.7141L6.03248 26.6813L11.403 26.421L12.0522 26.3895L11.8553 25.7701L11.6982 25.2755C11.6041 24.9796 11.5039 24.5298 11.4004 23.9127C11.3196 23.4309 11.2659 22.9613 11.239 22.5039C12.4479 22.0029 13.5629 21.426 14.5828 20.7722L14.5845 20.7711C15.7014 20.049 16.6195 19.3445 17.3306 18.6564C18.0515 17.9757 18.6845 17.2483 19.2282 16.4739L19.2282 16.4739L19.2313 16.4695C19.7625 15.6953 20.1705 15.022 20.4475 14.4533L20.4475 14.4533L20.4501 14.4477C20.722 13.8714 20.9409 13.2927 21.1058 12.7116C21.2774 12.1659 21.3902 11.7775 21.4312 11.5739L21.4313 11.5739L21.4329 11.5652C21.4688 11.3691 21.4926 11.1894 21.4934 11.0411C21.5289 9.85908 21.4208 8.7564 21.1642 7.73616C20.9116 6.71474 20.5724 5.84784 20.1363 5.14944C19.7267 4.46599 19.2161 3.84873 18.6069 3.29797C18.0334 2.76403 17.4911 2.34144 16.9805 2.04034C16.5005 1.7472 15.9857 1.50061 15.4369 1.3C14.9599 1.10413 14.5781 0.966078 14.3267 0.915499C14.1593 0.866199 14.0094 0.828285 13.883 0.806551C12.9623 0.610031 12.0241 0.511755 11.0692 0.511433C10.1219 0.493903 9.26259 0.547048 8.49398 0.674326C7.73766 0.799569 6.98232 0.978329 6.22807 1.21029C5.48422 1.43904 4.85885 1.67187 4.35853 1.91061C3.87535 2.12427 3.40137 2.3642 2.93662 2.63032C2.4953 2.86655 2.16948 3.0543 1.99449 3.18365C1.87296 3.26993 1.77476 3.34086 1.70124 3.39565ZM6.81878 30.3989L6.81873 30.3989L6.81332 30.405C6.21764 31.0757 5.90124 31.8417 5.90124 32.6892C5.90124 33.541 6.22273 34.2621 6.85999 34.8113C7.51461 35.3777 8.30362 35.5958 9.18323 35.4766C10.0606 35.3927 10.8085 35.001 11.4093 34.3258C12.0222 33.6567 12.3504 32.8898 12.3504 32.0385C12.3504 31.1567 12.0229 30.42 11.3578 29.8838C10.7178 29.3359 9.93867 29.1331 9.06844 29.2511C8.19062 29.335 7.43579 29.7266 6.81878 30.3989Z" fill="url(#paint0_linear_9_69)" stroke="#713F12"/>
<defs>
<linearGradient id="paint0_linear_9_69" x1="11.5" y1="1.00818" x2="11.5" y2="35.0082" gradientUnits="userSpaceOnUse">
<stop stop-color="#CA8A04"/>
<stop offset="1" stop-color="#CA8A04"/>
</linearGradient>
</defs>
</svg>
