<svg width="64" height="64" viewBox="0 0 64 64" fill="none" xmlns="http://www.w3.org/2000/svg">
<path d="M20.0204 50.042L15.9906 54.0718C14.8686 55.1938 14.8686 57.0455 15.9906 58.1675C17.1126 59.2894 18.9625 59.2895 20.0845 58.1675L24.9263 53.3238L20.0204 50.042ZM39.1107 53.3596L43.9166 58.1675C45.0386 59.2895 46.8885 59.2894 48.0105 58.1675C49.1325 57.0455 49.1325 55.1938 48.0105 54.0718L43.9958 50.057L39.1107 53.3596Z" fill="#4D4D4D"/>
<path d="M20.0204 50.042L17.8105 52.2518C19.3817 53.4724 21.1132 54.4965 22.967 55.285L24.9263 53.3238L20.0204 50.042ZM39.1107 53.3596L41.0323 55.2831C42.8864 54.4943 44.6172 53.4709 46.1887 52.25L43.9958 50.057L39.1107 53.3596Z" fill="#333333"/>
<path d="M31.9971 12.7094C20.2885 12.7094 10.778 22.2199 10.778 33.9284C10.778 45.637 20.2885 55.1547 31.9971 55.1547C43.7057 55.1547 53.2233 45.637 53.2233 33.9284C53.2233 22.2199 43.7056 12.7094 31.9971 12.7094Z" fill="#DC1C4B"/>
<path d="M31.9971 20.8911C24.5503 20.8911 19.0626 26.4818 19.0626 33.9285C19.0626 41.3753 25.9224 46.7305 31.9971 46.7671C38.1469 46.8043 45.2474 41.3753 45.2474 33.9285C45.2473 26.4818 39.4438 20.8911 31.9971 20.8911Z" fill="#ECECEC"/>
<path d="M31.9453 21.0455C27.7315 21.0455 24.4278 22.5218 21.9506 25.5541C24.277 23.6535 26.8347 22.3572 30.0676 22.3572C37.5144 22.3572 43.5756 28.411 43.5756 35.8577C43.5756 39.0903 42.4329 41.5478 40.5312 43.8756C43.5648 41.3964 45.0932 38.1419 45.0932 33.9285C45.0931 26.4818 39.3921 21.0455 31.9453 21.0455V21.0455Z" fill="#CCCCCC"/>
<path d="M30.0674 4.99072C28.4806 4.99072 27.1765 6.30201 27.1765 7.88877C27.1764 9.47552 28.4806 10.7797 30.0674 10.7797H33.9267C35.5134 10.7797 36.8247 9.47552 36.8247 7.88877C36.8247 6.30201 35.5135 4.99072 33.9267 4.99072H30.0674Z" fill="#EAB308"/>
<path d="M32.0042 16.6683C31.474 16.6662 31.0415 17.0924 31.0358 17.6225C31.0296 18.1554 31.457 18.5923 31.9899 18.598C34.6178 18.6199 37.302 19.3674 39.6729 20.7413C40.1365 21.0118 40.7318 20.8518 40.9974 20.3855C41.263 19.9234 41.1036 19.3335 40.6413 19.0682C37.988 17.5306 34.9867 16.6914 32.0041 16.6685L32.0042 16.6683ZM42.9199 23.2191C43.5784 23.8731 44.1841 24.5944 44.7214 25.3695C45.0254 25.8091 45.629 25.9177 46.0672 25.6116C46.5068 25.3075 46.6154 24.704 46.3093 24.2658C45.7034 23.3918 45.0197 22.5867 44.2799 21.852C43.6507 21.4515 43.5179 21.6074 43.0319 21.9213C42.5459 22.2352 42.5459 22.8427 42.9199 23.219V23.2191Z" fill="#F0517A"/>
<path d="M7.65542 11.7316C4.41201 14.9751 4.11678 18.9544 6.47718 22.6852C6.9322 23.4043 7.72222 23.7983 8.47804 23.8244C9.23386 23.85 9.97932 23.555 10.543 22.9913L19.4499 13.5497C20.0136 12.986 20.3093 12.2335 20.283 11.4776C20.2568 10.7217 19.863 9.93891 19.1437 9.48386C15.1105 7.17022 10.6487 8.81668 7.65542 11.7316Z" fill="#EAB308"/>
<path d="M50.3822 8.58756C48.2609 8.36372 46.5553 8.19704 44.69 9.37705C43.9707 9.8321 43.584 10.6149 43.5578 11.3708C43.5315 12.1267 43.8201 12.8792 44.3838 13.4429L53.4582 22.4567C54.0219 23.0204 54.7674 23.316 55.5232 23.2898C56.279 23.2643 57.0619 22.8697 57.5169 22.1506C59.8773 18.4198 58.6802 13.9592 55.4368 10.7157C53.8151 9.09406 52.5034 8.81133 50.3822 8.58756V8.58756Z" fill="#EAB308"/>
<path d="M13.6722 8.42787C11.5509 8.65171 9.75861 9.36182 8.13694 10.9835C7.80948 11.3108 7.51076 11.6557 7.24017 12.0158C8.66346 10.9464 9.99661 10.0545 11.6895 9.87578C13.8108 9.65193 15.9904 10.1256 17.8558 11.3058C18.575 11.7608 18.9693 12.5431 18.9956 13.299C19.0218 14.0548 18.7266 14.8077 18.1629 15.3714L19.7177 13.2817C20.1936 12.6422 20.2559 12.286 20.2296 11.5302C20.2034 10.7743 20.1833 10.1524 19.4641 9.69732C17.2982 8.55206 15.8382 8.28973 13.6722 8.42787V8.42787Z" fill="#EAB308"/>
<path d="M30.0676 4.99072C28.7736 4.99072 27.6679 5.86373 27.3038 7.0461C27.5687 6.9648 27.8484 6.91993 28.1384 6.91993H31.9968C33.5836 6.91993 34.8962 8.23078 34.8962 9.81753C34.8962 10.1066 34.8527 10.3878 34.7719 10.6521C35.9534 10.2875 36.8254 9.18171 36.8254 7.88832C36.8254 6.30157 35.5128 4.99072 33.926 4.99072H30.0676Z" fill="#EAB308"/>
<path d="M44.476 9.85789C43.9342 10.2006 43.581 10.7303 43.4285 11.2934C45.0831 10.478 46.658 9.68648 48.4532 9.87591C50.5745 10.0998 52.6342 11.0237 54.2559 12.6453C57.2511 15.6406 57.8625 19.3818 56.0795 22.9895C56.6434 22.8353 57.1738 22.4787 57.517 21.9364C59.8774 18.2057 58.7868 13.9596 55.5434 10.7161C53.9217 9.09449 52.5037 8.59826 50.3824 8.37449C48.262 8.16486 46.0304 8.89867 44.476 9.85789V9.85789Z" fill="#EAB308"/>
<path d="M31.9968 12.7094C25.6523 12.7094 19.9544 15.5014 16.0641 19.923C19.8023 16.6342 24.7039 14.6385 30.0676 14.6385C41.7762 14.6385 51.2942 24.1491 51.2943 35.8577C51.2943 41.2219 49.2949 46.125 46.0041 49.8649C50.4274 45.9727 53.2234 40.2729 53.2234 33.9285C53.2234 22.2199 43.7054 12.7094 31.9968 12.7094V12.7094Z" fill="#B01D47"/>
<path d="M30.0676 4.99072C28.4809 4.99072 27.1758 6.30146 27.1757 7.88821C27.1757 9.47496 28.4809 10.7801 30.0676 10.7801H33.926C35.5127 10.7801 36.8254 9.47496 36.8254 7.88821C36.8254 6.30146 35.5128 4.99072 33.926 4.99072H30.0676ZM7.46757 6.05324C5.48922 6.99846 3.9053 8.61998 2.85939 10.6445C2.61221 11.1189 2.79814 11.7036 3.27387 11.9481C3.74723 12.1942 4.33055 12.0094 4.57569 11.5356C5.45133 9.84062 6.73527 8.54553 8.3003 7.79776C8.78291 7.56844 8.98733 6.99084 8.7562 6.50917C8.28884 5.90872 7.93417 5.88681 7.46757 6.05324V6.05324ZM55.245 6.50728C55.0138 6.98895 55.2184 7.56681 55.7009 7.79598C57.2659 8.54375 58.5498 9.83873 59.4255 11.5337C59.6699 12.005 60.2492 12.1902 60.7217 11.9481C61.1995 11.7057 61.3881 11.1204 61.1418 10.6445C60.0959 8.61998 58.5063 6.99656 56.5279 6.05134C55.9027 5.84427 55.4894 6.11369 55.245 6.50728V6.50728ZM30.0676 6.91993H33.926C34.4702 6.91993 34.8944 7.34405 34.8944 7.88821C34.8943 8.43237 34.4702 8.85093 33.926 8.85093H30.0676C29.5235 8.85093 29.1068 8.43237 29.1068 7.88821C29.1068 7.34405 29.5235 6.91993 30.0676 6.91993ZM7.8161 10.7161C4.5727 13.9595 4.1162 18.9542 6.47661 22.685C6.93163 23.4041 7.72156 23.7985 8.47738 23.8247C9.23319 23.8502 9.97854 23.5557 10.5422 22.992L20.092 13.4422C20.6557 12.8785 20.951 12.1257 20.9248 11.3698C20.8985 10.6139 20.5042 9.83168 19.7849 9.37662C15.7189 7.16536 11.025 7.59122 7.8161 10.7161ZM44.2087 9.37662C43.4895 9.83168 43.1027 10.6139 43.0764 11.3698C43.0502 12.1257 43.3398 12.8785 43.9035 13.4422L53.459 22.992C54.0226 23.5557 54.768 23.8508 55.5238 23.8247C56.2796 23.7992 57.062 23.4041 57.517 22.685C59.8774 18.9542 59.4285 13.9595 56.1851 10.7161C52.7042 7.60594 48.0248 7.02161 44.2087 9.37662ZM18.7318 12.0763L9.18386 21.6242C8.68848 22.107 8.33633 22.0671 8.10813 21.6534C6.22251 18.6731 6.57659 14.6845 9.18386 12.0772C12.0914 9.67124 15.6015 9.05884 18.7601 11.009C19.0301 11.2602 19.1026 11.5856 18.7316 12.0772L18.7318 12.0763ZM54.8192 12.0763C57.4265 14.6836 57.7711 18.6722 55.8855 21.6525C55.4633 22.0383 55.1427 21.8599 54.8192 21.6233L45.2694 12.0754C44.8228 11.5976 44.9251 11.1815 45.2409 11.0072C48.4996 9.22771 52.2461 9.5696 54.819 12.0754L54.8192 12.0763ZM14.1594 11.8258C11.5971 14.388 10.9031 15.0841 9.18386 16.8033C8.80976 17.1795 8.80976 17.7873 9.18386 18.1635C9.55989 18.5364 10.1662 18.5364 10.5422 18.1635C12.2615 16.4443 12.9574 15.7482 15.5196 13.1861C15.8937 12.8099 15.8937 12.2021 15.5196 11.8258C14.9541 11.3912 14.4589 11.5426 14.1594 11.8258V11.8258ZM48.4815 11.8258C48.1074 12.2021 48.1074 12.8099 48.4815 13.1861C51.0438 15.7482 51.7321 16.4443 53.4514 18.1635C53.8285 18.5427 54.4421 18.5427 54.8192 18.1635C55.1933 17.7873 55.1933 17.1795 54.8192 16.8033C53.0999 15.0841 52.404 14.388 49.8417 11.8258C49.4013 11.4759 48.9471 11.4365 48.4815 11.8258ZM31.9968 12.7095C20.2882 12.7095 10.7777 22.22 10.7777 33.9286C10.7777 40.8353 14.0889 46.9779 19.2066 50.856L15.9906 54.0719C14.8687 55.1939 14.8686 57.0457 15.9906 58.1676C17.1126 59.2896 18.9625 59.2896 20.0845 58.1676L24.4741 53.7762C26.8133 54.6656 29.348 55.1552 31.9968 55.1552C34.6471 55.1552 37.1843 54.6646 39.5251 53.7743L43.9167 58.1676C45.0387 59.2896 46.8885 59.2896 48.0105 58.1676C49.1326 57.0457 49.1325 55.1939 48.0105 54.0719L44.7927 50.8541C49.9113 46.9759 53.2235 40.8344 53.2235 33.9286C53.2234 22.22 43.7054 12.7095 31.9968 12.7095V12.7095ZM31.9968 14.6386C42.6628 14.6386 51.2943 23.2626 51.2943 33.9286C50.6871 44.863 42.9631 53.1007 31.9968 53.226C21.8061 53.3365 13.193 44.5245 12.7069 33.9286C12.7069 23.2626 21.3308 14.6386 31.9968 14.6386ZM32.0045 16.6677C31.4739 16.6656 31.0413 17.0923 31.0361 17.6228C31.0292 18.1556 31.4566 18.5925 31.9894 18.5987C34.6173 18.6205 37.3012 19.3668 39.6722 20.7407C40.1359 21.0112 40.7311 20.8512 40.9966 20.3846C41.262 19.9226 41.1025 19.333 40.6406 19.0677C37.9872 17.5302 34.987 16.6924 32.0045 16.6695V16.6677ZM31.9968 20.428C24.3285 20.9354 18.6105 26.4137 18.4963 33.9286C19.0043 41.5947 24.482 47.3221 31.9968 47.4366C39.6668 46.9274 45.3907 41.4467 45.5049 33.9286C45.7632 26.7721 39.5106 20.5424 31.9968 20.428V20.428ZM42.9201 23.2201C43.5785 23.8741 44.1838 24.5946 44.7211 25.3697C45.0254 25.8086 45.6285 25.9167 46.0663 25.6107C46.5058 25.307 46.6148 24.7039 46.3093 24.2656C45.7034 23.3915 45.0201 22.587 44.2803 21.8522C43.7787 21.4505 43.3243 21.5526 42.9427 21.8267C42.5158 22.1158 42.546 22.8441 42.9201 23.2203L42.9201 23.2201ZM31.9968 22.3572C34.8516 22.3572 37.4616 23.3837 39.478 25.089C39.1612 25.4058 38.8435 25.7217 38.5266 26.0385C38.1475 26.4156 38.1475 27.0292 38.5266 27.4063C38.9029 27.7804 39.5106 27.7804 39.8869 27.4063C40.205 27.0884 40.522 26.7693 40.8402 26.4511C42.5467 28.466 43.5757 31.0741 43.5757 33.9286C43.5757 36.7819 42.5473 39.3899 40.842 41.406C40.5093 41.0731 40.19 40.7538 39.8153 40.3792C39.4382 40.0001 38.8246 40.0001 38.4475 40.3792C38.0684 40.7563 38.0684 41.3699 38.4475 41.747C38.8161 42.1155 39.1504 42.4463 39.478 42.7719C37.4616 44.4787 34.8516 45.5074 31.9968 45.5074C29.1433 45.5074 26.5358 44.4794 24.5212 42.7738L25.5461 41.7546C25.9252 41.3774 25.9252 40.7639 25.5461 40.3867C25.169 40.0076 24.5555 40.0076 24.1784 40.3867L23.1572 41.4079C21.453 39.3917 20.4255 36.7824 20.4255 33.9286C20.4255 31.0755 21.4538 28.4692 23.1572 26.4548C23.5026 26.8001 23.8481 27.1457 24.1934 27.4911C24.5703 27.8689 25.1824 27.8689 25.5593 27.4911C25.9372 27.1142 25.9372 26.502 25.5593 26.1252C25.2133 25.7792 24.8672 25.4331 24.5212 25.0871C26.5358 23.3831 29.1433 22.3572 31.9968 22.3572V22.3572ZM31.9968 24.2883C31.467 24.2903 31.0381 24.7193 31.036 25.2491V33.9286C31.036 34.1852 31.1384 34.4314 31.3205 34.6125C32.6035 35.8955 33.8826 37.182 35.1656 38.4651C35.5428 38.8442 36.1563 38.8442 36.5334 38.4651C36.9125 38.088 36.9125 37.4745 36.5334 37.0974C35.3453 35.9093 34.1533 34.7248 32.9652 33.5367V25.2491C32.9632 24.7164 32.5296 24.2862 31.9968 24.2883V24.2883ZM23.3155 32.9677C22.7828 32.9699 22.3526 33.4033 22.3547 33.936C22.3566 34.4658 22.7857 34.8948 23.3155 34.8968C23.8482 34.899 24.2818 34.4688 24.2839 33.936C24.2858 33.4004 23.8512 32.9657 23.3155 32.9677ZM40.6781 32.9677C40.1447 32.9688 39.7133 33.4025 39.7154 33.936C39.7174 34.4665 40.1476 34.8958 40.6781 34.8968C41.2109 34.899 41.6444 34.4688 41.6465 33.936C41.6484 33.4004 41.2138 32.9657 40.6781 32.9677ZM54.6835 38.5706C54.0104 41.4947 52.9411 44.3437 51.202 46.8676C50.9012 47.3041 51.0089 47.9013 51.4431 48.2052C51.8809 48.511 52.484 48.4031 52.7883 47.9642C54.7014 45.1877 55.8517 42.0991 56.5637 39.0059C56.6809 38.4868 56.3555 37.9709 55.8365 37.853C55.2497 37.7469 54.8041 38.1479 54.6835 38.5708L54.6835 38.5706ZM8.1929 37.8454C7.67002 37.9478 7.32923 38.4547 7.43179 38.9776C8.0799 42.2868 9.47366 45.2598 11.1903 47.934C11.4779 48.387 12.0798 48.5181 12.5298 48.226C12.9743 47.9361 13.1014 47.342 12.8143 46.8959C11.1917 44.3681 9.91455 41.616 9.32516 38.6065C9.1494 37.9231 8.71443 37.7601 8.1929 37.8454V37.8454ZM31.9968 41.6472C31.4633 41.6482 31.032 42.0821 31.0341 42.6156C31.0351 43.1468 31.4656 43.5773 31.9968 43.5783C32.5303 43.5804 32.9641 43.149 32.9652 42.6156C32.9671 42.0799 32.5325 41.6451 31.9968 41.6472ZM20.8211 51.9676C21.3874 52.3198 21.9713 52.6467 22.5713 52.9453L18.7167 56.8C18.332 57.1847 17.7413 57.1847 17.3565 56.8C16.9718 56.4153 16.9718 55.8169 17.3565 55.4321L20.8211 51.9676ZM43.1744 51.9676L46.6447 55.4321C47.0294 55.8169 47.0294 56.4153 46.6447 56.8C46.2599 57.1847 45.6617 57.1847 45.2769 56.8L41.4223 52.9453C42.0231 52.6464 42.6075 52.32 43.1744 51.9676Z" fill="black"/>
</svg>
